/* XPM */
static char*minus[]={
"22 22 2 1",
". c None",
"# c #ff0000",
"......................",
"......................",
"......................",
"......................",
"......................",
"......................",
"......................",
"......................",
"......................",
"..##################..",
"..##################..",
"..##################..",
"......................",
"......................",
"......................",
"......................",
"......................",
"......................",
"......................",
"......................",
"......................",
"......................"};
