/* XPM */
static char*plus[]={
"22 22 3 1",
"# c #00ff00",
"b c #0000ff",
". c None",
"......................",
"......................",
".......###............",
".......###............",
".......###............",
".......###............",
".......###............",
".......###............",
"..##############......",
"..##############......",
"..##############......",
".......###............",
".......###............",
".......###............",
".......###....bbbbbb..",
".......###....bbbbbb..",
".......###....bbbbbb..",
"..............bbbbbb..",
"..............bbbbbb..",
"..............bbbbbb..",
"......................",
"......................"};
