/* XPM */
static char*plusnet[]={
"22 22 4 1",
"# c #00ff00",
"b c #0000ff",
"s c #000000",
". c None",
"......................",
"......................",
".......###............",
".......###............",
".......###............",
".......###............",
".......###............",
".......###............",
"..##############......",
"..##############......",
"..##############......",
".......###............",
".......###.ssssssssss.",
".......###.s........s.",
".......###.s.bb..bb.s.",
".......###.s.bb..bb.s.",
".......###.s........s.",
"...........s.bb..bb.s.",
"...........s.bb..bb.s.",
"...........s........s.",
"...........ssssssssss.",
"......................"};
