/* XPM */
static char*select[]={
"22 22 2 1",
"# c #000000",
". c None",
"......................",
"......................",
"..#.#.#.#.#.#.#.#.#...",
"...................#..",
"..#...................",
"...................#..",
"..#...................",
"...................#..",
"..#...................",
"...................#..",
"..#...................",
"...................#..",
"..#...................",
"...................#..",
"..#...................",
"...................#..",
"..#...................",
"...................#..",
"..#...................",
"...#.#.#.#.#.#.#.#.#..",
"......................",
"......................"};
